<svg width="16" height="14" viewBox="0 0 16 14" fill="none" xmlns="http://www.w3.org/2000/svg">
<path fill-rule="evenodd" clip-rule="evenodd" d="M15 14C14.4477 14 14 13.5523 14 13V1C14 0.447715 14.4477 0 15 0C15.5523 0 16 0.447715 16 1V13C16 13.5523 15.5523 14 15 14ZM7.29289 10.7071C6.90237 10.3166 6.90237 9.68342 7.29289 9.29289L8.58579 8L1 8C0.447716 8 2.41411e-08 7.55229 0 7C-2.41411e-08 6.44772 0.447715 6 1 6L8.58579 6L7.29289 4.70711C6.90237 4.31658 6.90237 3.68342 7.29289 3.29289C7.68342 2.90237 8.31658 2.90237 8.70711 3.29289L11.7071 6.29289C11.8946 6.48043 12 6.73478 12 7C12 7.26522 11.8946 7.51957 11.7071 7.70711L8.70711 10.7071C8.31658 11.0976 7.68342 11.0976 7.29289 10.7071Z" fill="white"/>
</svg>
